Coordinates
version=1
nRows=14
nColumns=40
inDegrees=yes

Units are S.I. units (second, meters, Newtons, ...)
If the header above contains a line with 'inDegrees', this indicates whether rotational values are in degrees (yes) or radians (no).

endheader
time	pelvis_tilt	pelvis_list	pelvis_rotation	pelvis_tx	pelvis_ty	pelvis_tz	hip_flexion_r	hip_adduction_r	hip_rotation_r	knee_angle_r	knee_angle_r_beta	ankle_angle_r	subtalar_angle_r	mtp_angle_r	hip_flexion_l	hip_adduction_l	hip_rotation_l	knee_angle_l	knee_angle_l_beta	ankle_angle_l	subtalar_angle_l	mtp_angle_l	lumbar_extension	lumbar_bending	lumbar_rotation	arm_flex_r	arm_add_r	arm_rot_r	elbow_flex_r	pro_sup_r	wrist_flex_r	wrist_dev_r	arm_flex_l	arm_add_l	arm_rot_l	elbow_flex_l	pro_sup_l	wrist_flex_l	wrist_dev_l
      0.44500000	      3.41821800	     -5.79556634	     -1.35783967	     -0.09969573	      0.94282045	      0.27804276	     -0.58472156	      7.40251641	    -11.78592855	      9.31662675	      0.16260581	     -0.78162499	     -3.72022373	      0.00000000	     14.26856151	    -20.63644394	    -15.53552790	     66.04001222	      1.15261565	     -1.95854899	     -7.74349420	      0.00000000	     -4.84533770	      7.78984701	     -2.33548020	     43.95283681	    -16.50766842	     43.95283681	     74.95381323	     44.97605842	      0.00000000	      0.00000000	     43.95283681	    -16.50766842	     43.95283681	     74.95381323	     44.97605842	      0.00000000	      0.00000000
      0.45000000	      3.35376190	     -5.76971765	     -1.53986972	     -0.09336308	      0.94311991	      0.27810717	     -1.04498759	      7.35497375	    -11.90518007	      9.17751383	      0.16017783	     -0.63555160	     -3.56025859	      0.00000000	     15.03478473	    -20.56444989	    -15.76305427	     65.39956412	      1.14143772	     -1.51902306	     -7.71362596	      0.00000000	     -4.77290963	      7.74490393	     -2.31278201	     43.95307558	    -16.50710020	     43.95307558	     74.95384745	     44.97610746	      0.00000000	      0.00000000	     43.95307558	    -16.50710020	     43.95307558	     74.95384745	     44.97610746	      0.00000000	      0.00000000
      0.45500000	      3.74573266	     -4.88254995	     -1.86447116	     -0.08692659	      0.94456155	      0.27868007	     -1.98963021	      6.27684631	    -12.13149430	      9.09983001	      0.15882200	      0.05350291	     -2.09170937	      0.00000000	     14.87099573	    -19.40678103	    -16.37681904	     64.14877087	      1.11960726	     -0.88553041	     -7.46173802	      0.00000000	     -5.28494838	      6.64948608	     -1.81391926	     43.95770992	    -16.49608613	     43.95770992	     74.95450853	     44.97704226	      0.00000000	      0.00000000	     43.95770992	    -16.49608613	     43.95770992	     74.95450853	     44.97704226	      0.00000000	      0.00000000
      0.46000000	      3.89449616	     -4.54572877	     -2.07808472	     -0.08053874	      0.94525061	      0.27888621	     -2.67072694	      5.83745472	    -12.32835077	      8.99393933	      0.15697385	      0.42317057	     -1.31511671	      0.00000000	     15.19878031	    -18.92543218	    -16.74296609	     63.16808244	      1.10249102	     -0.36811750	     -7.21484597	      0.00000000	     -5.47578709	      6.23625797	     -1.62320936	     43.96127981	    -16.48762371	     43.96127981	     74.95501328	     44.97773996	      0.00000000	      0.00000000	     43.96127981	    -16.48762371	     43.96127981	     74.95501328	     44.97773996	      0.00000000	      0.00000000
      0.46500000	      3.82143530	     -4.57261973	     -2.22487967	     -0.07423077	      0.94532557	      0.27889912	     -3.10668290	      5.83532171	    -12.42194884	      8.87326578	      0.15486770	      0.57330659	     -1.14379178	      0.00000000	     15.91901331	    -18.89297452	    -16.94619592	     62.35748947	      1.08834350	      0.02670080	     -7.13744609	      0.00000000	     -5.38012625	      6.23249160	     -1.62848834	     43.96156235	    -16.48695488	     43.96156235	     74.95505305	     44.97779435	      0.00000000	      0.00000000	     43.96156235	    -16.48695488	     43.96156235	     74.95505305	     44.97779435	      0.00000000	      0.00000000
      0.47000000	      4.21484903	     -3.84230018	     -2.58219739	     -0.06778973	      0.94649464	      0.27959396	     -4.06412104	      4.93667334	    -12.54718130	      8.73133361	      0.15239052	      1.10219308	      0.05297997	      0.00000000	     15.70413135	    -17.95350058	    -17.61292984	     60.97835153	      1.06427301	      0.51000249	     -6.82110988	      0.00000000	     -5.89581181	      5.25829053	     -1.20866367	     43.96527384	    -16.47817856	     43.96527384	     74.95557339	     44.97849809	      0.00000000	      0.00000000	     43.96527384	    -16.47817856	     43.96527384	     74.95557339	     44.97849809	      0.00000000	      0.00000000
      0.47500000	      4.12590558	     -3.90350476	     -2.71621893	     -0.06152839	      0.94641351	      0.27959367	     -4.46692435	      4.96853133	    -12.62368866	      8.64491049	      0.15088215	      1.26782462	      0.20331834	      0.00000000	     16.41725325	    -17.95062999	    -17.79411436	     60.09156444	      1.04879565	      0.80081415	     -6.71338480	      0.00000000	     -5.80087756	      5.30806083	     -1.23356254	     43.96553039	    -16.47757279	     43.96553039	     74.95560919	     44.97854597	      0.00000000	      0.00000000	     43.96553039	    -16.47757279	     43.96553039	     74.95560919	     44.97854597	      0.00000000	      0.00000000
      0.48000000	      4.50482814	     -3.21799539	     -3.08556047	     -0.05509130	      0.94739565	      0.28029659	     -5.40193620	      4.10493748	    -12.71088385	      8.48980944	      0.14817513	      1.77801356	      1.33606940	      0.00000000	     16.16974832	    -17.06321234	    -18.48009019	     58.59455501	      1.02266791	      1.21859299	     -6.34925535	      0.00000000	     -6.28082071	      4.38780651	     -0.76643581	     43.96891254	    -16.46959443	     43.96891254	     74.95607947	     44.97916870	      0.00000000	      0.00000000	     43.96891254	    -16.46959443	     43.96891254	     74.95607947	     44.97916870	      0.00000000	      0.00000000
      0.48500000	      4.40349382	     -3.32068236	     -3.20759932	     -0.04884456	      0.94716090	      0.28029879	     -5.78091666	      4.17978194	    -12.77002880	      8.42877689	      0.14710991	      1.95724727	      1.46827983	      0.00000000	     16.85945759	    -17.10158193	    -18.65452132	     57.62703165	      1.00578144	      1.44285307	     -6.23973618	      0.00000000	     -6.16623369	      4.47533193	     -0.80960003	     43.96914899	    -16.46903741	     43.96914899	     74.95611221	     44.97921161	      0.00000000	      0.00000000	     43.96914899	    -16.46903741	     43.96914899	     74.95611221	     44.97921161	      0.00000000	      0.00000000
      0.49000000	      4.76073339	     -2.66610717	     -3.59898442	     -0.04244693	      0.94798542	      0.28110338	     -6.68414253	      3.34944512	    -12.78665343	      8.26579658	      0.14426537	      2.44248428	      2.48961127	      0.00000000	     16.59147930	    -16.25528568	    -19.36083126	     56.01492489	      0.97764487	      1.74585108	     -5.88172460	      0.00000000	     -6.62730206	      3.59841771	     -0.30106802	     43.97248547	    -16.46118500	     43.97248547	     74.95657248	     44.97980879	      0.00000000	      0.00000000	     43.97248547	    -16.46118500	     43.97248547	     74.95657248	     44.97980879	      0.00000000	      0.00000000
      0.49500000	      4.64344701	     -2.80927963	     -3.71961683	     -0.03624395	      0.94757414	      0.28109534	     -7.03959248	      3.46189975	    -12.83756044	      8.21022159	      0.14329540	      2.63591385	      2.61773762	      0.00000000	     17.25868221	    -16.33978592	    -19.53984313	     54.97661837	      0.95952300	      1.93838212	     -5.76401756	      0.00000000	     -6.51321220	      3.71715715	     -0.36016079	     43.97271324	    -16.46064962	     43.97271324	     74.95660377	     44.97984899	      0.00000000	      0.00000000	     43.97271324	    -16.46064962	     43.97271324	     74.95660377	     44.97984899	      0.00000000	      0.00000000
      0.50000000	      4.53043012	     -2.91239125	     -3.85373441	     -0.02999435	      0.94715019	      0.28112726	     -7.43345154	      3.53336819	    -12.82671449	      8.09014484	      0.14119966	      2.85244555	      2.85408388	      0.00000000	     17.86166616	    -16.35640291	    -19.71762346	     53.83967301	      0.93967956	      2.18344292	     -5.55329650	      0.00000000	     -6.41130516	      3.78518503	     -0.39811393	     43.97295656	    -16.46007780	     43.97295656	     74.95663718	     44.97989186	      0.00000000	      0.00000000	     43.97295656	    -16.46007780	     43.97295656	     74.95663718	     44.97989186	      0.00000000	      0.00000000
      0.50500000	      4.95787696	     -2.26190984	     -4.26746258	     -0.02356663	      0.94791063	      0.28208368	     -8.51560375	      2.72366703	    -12.67732997	      7.67839600	      0.13401329	      3.22514941	      3.87222979	      0.00000000	     17.40870909	    -15.52903004	    -20.50761985	     52.03959853	      0.90826234	      2.48665421	     -4.93170280	      0.00000000	     -6.96787981	      2.84308511	      0.14146039	     43.97504819	    -16.45516446	     43.97504819	     74.95692385	     44.98025768	      0.00000000	      0.00000000	     43.97504819	    -16.45516446	     43.97504819	     74.95692385	     44.98025768	      0.00000000	      0.00000000
      0.51000000	      5.15079612	     -1.89225029	     -4.67012927	     -0.01739141	      0.94808463	      0.28286162	     -9.13607457	      2.19775878	    -12.58540588	      7.70177408	      0.13442132	      3.64548632	      4.40609621	      0.00000000	     17.33672315	    -15.01464862	    -21.13538224	     50.37484026	      0.87920682	      2.45991948	     -4.84287599	      0.00000000	     -7.22723263	      2.33485824	      0.65813788	     43.97795631	    -16.44834522	     43.97795631	     74.95732003	     44.98075540	      0.00000000	      0.00000000	     43.97795631	    -16.44834522	     43.97795631	     74.95732003	     44.98075540	      0.00000000	      0.00000000
